<svg xmlns="http://www.w3.org/2000/svg" width="40" height="40" viewBox="0 0 40 40">
    <g fill="none">
        <path stroke="#FFF" stroke-width="2" d="M8.103 4.523L0.705 17.602 4.722 32.082 17.801 39.48 32.281 35.463 39.679 22.384 35.662 7.904 22.583 0.506z"/>
        <path fill="#FFF" d="M17.859 13.687l-.11-.005-1.85 5.371-.225.652c-.07.207-.07.43 0 .636l1.802 5.232c.095.275.307.495.58.6l.35.126 1.857-5.392.254-.735c.07-.203.07-.424 0-.627l-1.8-5.205c-.128-.368-.466-.626-.858-.653zM30.608 13.328h-3.895c-.224 0-.424.141-.496.351l-1.809 5.252-.15.434c-.107.314-.107.655 0 .969l1.952 5.663c.07.204.27.336.487.322.056-.004.116-.013.174-.017l4.232-12.288c.055-.158.03-.333-.07-.469-.098-.136-.256-.217-.425-.217z" opacity=".7"/>
        <path fill="#FFF" d="M17.905 26.657H14.01c-.224 0-.423-.14-.495-.35L9.281 14.013c-.054-.158-.028-.332.07-.468s.257-.217.426-.217h3.895c.224 0 .423.141.495.351l4.234 12.293c.054.158.028.333-.07.469-.098.136-.257.216-.426.216zM26.374 26.657H22.48c-.224 0-.423-.14-.496-.35L17.75 14.013c-.055-.158-.029-.332.07-.468.098-.136.256-.217.425-.217h3.897c.224 0 .423.141.495.351l4.234 12.293c.055.159.028.334-.07.47-.099.136-.258.216-.427.215z"/>
    </g>
</svg>
